<svg id="Capa_1" enable-background="new 0 0 512 512" height="512" viewBox="0 0 512 512" width="512"
	xmlns="http://www.w3.org/2000/svg">
	<g>
		<path d="m224.693 91.445h224.392v88.077h-224.392z" fill="#688d97"/>
		<path d="m483.098 432.483v72.017h-292.419v-72.017c0-69.273 56.157-125.429 125.429-125.429h41.56c69.273-.001 125.43 56.156 125.43 125.429z" fill="#21c1f8"/>
		<path d="m483.099 432.486v72.01h-33.885v-72.01c0-69.275-56.157-125.433-125.423-125.433h33.876c69.275.001 125.432 56.158 125.432 125.433z" fill="#1faaee"/>
		<path d="m363.494 277.036v47.338c0 14.689-11.914 26.603-26.603 26.603-14.7 0-26.614-11.914-26.614-26.603v-47.338z" fill="#fdb0a0"/>
		<g fill="#f9a08f">
			<path d="m363.494 277.036v35.693c-8.049 3.634-17.068 5.671-26.603 5.671s-18.565-2.037-26.614-5.671v-35.693z"/>
			<circle cx="433.359" cy="182.369" r="30.472"/>
			<circle cx="240.417" cy="182.369" r="30.472"/>
		</g>
		<path d="m424.743 142.314v58.536c0 48.447-38.747 88.584-87.194 88.954-48.826.35-88.524-39.107-88.524-87.854v-59.636c0-48.527 39.347-87.854 87.864-87.854 24.268 0 46.227 9.829 62.126 25.728 15.888 15.909 25.728 37.867 25.728 62.126z" fill="#fdb0a0"/>
		<path d="m424.743 142.314v12.779c-7.049 2.31-14.549 3.53-22.268 3.53h-131.162c-7.719 0-15.219-1.23-22.288-3.54v-12.769c0-48.527 39.347-87.854 87.864-87.854 24.268 0 46.227 9.829 62.126 25.728 15.888 15.909 25.728 37.867 25.728 62.126z" fill="#f9a08f"/>
		<path d="m300.157 7.5c-38.568 0-71.935 27.475-78.641 65.455-.506 2.866-.92 5.769-1.239 8.707-.928 8.546.292 17.191 3.563 25.14l.011.028c7.916 19.236 26.659 31.791 47.46 31.791h131.167c20.823 0 39.581-12.582 47.483-31.847 3.254-7.934 4.465-16.559 3.541-25.085-.32-2.947-.735-5.86-1.242-8.734-6.706-37.98-40.074-65.455-78.641-65.455z" fill="#3f5959"/>
		<path d="m453.801 87.257c0 6.68-1.3 13.309-3.84 19.519-7.9 19.269-26.658 31.848-47.487 31.848h-31.258c20.828 0 39.587-12.579 47.487-31.848 2.54-6.21 3.84-12.839 3.84-19.519 0-1.85-.1-3.71-.3-5.569-.32-2.94-.73-5.86-1.24-8.729-6.71-37.988-40.077-65.455-78.644-65.455h31.258c38.567 0 71.935 27.468 78.644 65.455.51 2.87.92 5.79 1.24 8.729.2 1.86.3 3.72.3 5.569z" fill="#384848"/>
		<path d="m132.93 450.255h-23.973c-5.523 0-10-4.477-10-10v-23.973c0-5.523 4.477-10 10-10h23.973c5.523 0 10 4.477 10 10v23.973c0 5.522-4.477 10-10 10z" fill="#24d1f8"/>
		<path d="m142.928 416.278v23.98c0 5.52-4.47 10-10 10h-21.98c5.52 0 10-4.48 10-10v-23.98c0-5.52-4.48-10-10-10h21.98c5.53 0 10 4.48 10 10z" fill="#21c1f8"/>
		<path d="m103.794 241.621c-.8.254-1.664.254-2.464 0-21.08-6.703-37.498-18.04-48.861-33.754-2.148-2.97-3.928-5.857-5.397-8.543-4.006-7.327-6.05-15.565-6.05-23.916v-62.309c0-1.887 1.29-3.53 3.124-3.976l57.447-13.99c.636-.155 1.3-.155 1.937 0l57.446 13.99c1.834.447 3.124 2.089 3.124 3.976v68.357c0 2.447-.412 4.875-1.231 7.18-1.616 4.547-4.708 11.615-10.215 19.231-11.362 15.714-27.78 27.05-48.86 33.754z" fill="#31a7fb"/>
		<path d="m164.096 113.1v68.36c0 2.44-.41 4.87-1.23 7.18-1.61 4.54-4.7 11.61-10.21 19.23-11.36 15.71-27.78 27.05-48.86 33.75-.8.25-1.67.25-2.47 0-6.98-2.22-13.45-4.95-19.39-8.18 19.75-6.79 35.22-17.81 46.07-32.82 5.51-7.62 8.6-14.68 10.22-19.23.82-2.31 1.23-4.74 1.23-7.18v-68.36c0-.77-.21-1.49-.58-2.11l22.1 5.38c1.83.45 3.12 2.09 3.12 3.98z" fill="#1c96f9"/>
		<g>
			<path d="m425.98 411.732c-4.143 0-7.5 3.357-7.5 7.5v85.268c0 4.143 3.357 7.5 7.5 7.5s7.5-3.357 7.5-7.5v-85.268c0-4.142-3.357-7.5-7.5-7.5z"/>
			<path d="m247.797 411.732c-4.143 0-7.5 3.357-7.5 7.5v85.268c0 4.143 3.357 7.5 7.5 7.5s7.5-3.357 7.5-7.5v-85.268c0-4.142-3.357-7.5-7.5-7.5z"/>
			<path d="m370.995 300.223v-9.332c29.965-11.693 52.723-38.296 59.306-70.688 1.017.082 2.037.137 3.06.137 20.938 0 37.971-17.033 37.971-37.97 0-12.194-5.784-23.056-14.746-30.008v-42.009c.104-.245.215-.485.316-.732 3.712-9.052 5.114-18.989 4.057-28.738-.334-3.089-.776-6.194-1.313-9.231-7.331-41.518-43.51-71.652-86.027-71.652h-1.505c-4.143 0-7.5 3.357-7.5 7.5s3.357 7.5 7.5 7.5h1.505c35.226 0 65.192 24.922 71.255 59.26.479 2.71.873 5.481 1.172 8.239.789 7.273-.257 14.685-3.023 21.431-6.774 16.518-22.689 27.191-40.544 27.191h-131.167c-17.832 0-33.739-10.655-40.524-27.145-.007-.018-.017-.041-.026-.064-2.771-6.752-3.818-14.165-3.028-21.439.299-2.748.692-5.511 1.169-8.214 6.061-34.337 36.028-59.259 71.254-59.259h38.133c4.143 0 7.5-3.357 7.5-7.5s-3.357-7.5-7.5-7.5h-38.133c-42.517 0-78.697 30.134-86.027 71.651-.534 3.028-.976 6.124-1.31 9.2-1.063 9.772.351 19.733 4.084 28.806.007.018.018.042.027.066.083.202.175.399.261.6v42.036c-8.966 6.952-14.753 17.815-14.753 30.01 0 20.937 17.038 37.97 37.98 37.97.951 0 1.902-.048 2.852-.119 3.592 18.62 12.665 35.726 26.427 49.39 9.588 9.52 20.831 16.753 33.077 21.436v9.178c-28.665 2.859-54.573 14.835-74.886 32.919l-59.528-59.529c-1.407-1.406-3.314-2.196-5.304-2.196h-134.155c-4.143 0-7.5 3.357-7.5 7.5s3.357 7.5 7.5 7.5h131.051l57.311 57.312c-21.214 23.63-34.084 54.823-34.084 88.753v17.234c0 4.143 3.357 7.5 7.5 7.5s7.5-3.357 7.5-7.5v-17.234c0-29.815 11.202-57.246 29.701-78.136l2.919 2.919c1.465 1.464 3.384 2.196 5.304 2.196 1.919 0 3.839-.732 5.304-2.196 2.929-2.93 2.929-7.678 0-10.607l-2.893-2.893c17.562-15.401 39.74-25.704 64.263-28.465v9.073c0 18.805 15.304 34.104 34.114 34.104 18.805 0 34.104-15.299 34.104-34.104v-9.075c59.106 6.65 104.604 57.049 104.604 117.184v72.017c0 4.143 3.357 7.5 7.5 7.5s7.5-3.357 7.5-7.5v-72.018c-.002-68.351-52.159-125.536-119.605-132.259zm62.365-94.883c-.409 0-.818-.011-1.225-.033.067-1.478.106-2.963.106-4.457v-41.397c.373-.018.744-.052 1.119-.052 12.666 0 22.971 10.304 22.971 22.97s-10.305 22.969-22.971 22.969zm8.224-74.059v14.027c-2.65-.588-5.4-.907-8.225-.907-.374 0-.746.015-1.119.026v-2.116c0-1.392-.041-2.787-.102-4.177 3.367-1.962 6.531-4.257 9.446-6.853zm-209.391-.014c2.913 2.596 6.076 4.89 9.44 6.853-.061 1.395-.102 2.794-.102 4.19v2.116c-.37-.011-.74-.026-1.11-.026-2.826 0-5.576.32-8.228.908zm8.227 74.073c-12.672 0-22.98-10.304-22.98-22.97s10.309-22.97 22.98-22.97c.371 0 .74.033 1.11.052v42.498c0 1.124.026 2.243.065 3.36-.391.02-.783.03-1.175.03zm16.111-3.39v-57.702c4.75 1.224 9.707 1.873 14.781 1.873h131.166c5.069 0 10.018-.648 14.763-1.868v56.597c0 44.585-35.774 81.123-79.744 81.45-.199.002-.396.002-.595.002-21.37 0-41.463-8.273-56.634-23.336-15.308-15.197-23.737-35.446-23.737-57.016zm80.36 141.527c-10.54 0-19.114-8.569-19.114-19.104v-28.98c6.227 1.26 12.624 1.909 19.123 1.908.234 0 .472 0 .706-.002 6.291-.047 12.438-.723 18.389-1.958v29.031c0 10.535-8.57 19.105-19.104 19.105z"/>
			<path d="m190.679 476.041c-4.143 0-7.5 3.357-7.5 7.5v20.959c0 4.143 3.357 7.5 7.5 7.5s7.5-3.357 7.5-7.5v-20.959c0-4.143-3.357-7.5-7.5-7.5z"/>
			<path d="m378.119 187.533c.029.001.059.001.088.001 4.102 0 7.45-3.302 7.497-7.414.048-4.142-3.271-7.538-7.413-7.585l-.085-.001c-.029-.001-.059-.001-.088-.001-4.101 0-7.408 3.302-7.455 7.414-.048 4.142 3.313 7.539 7.456 7.586z"/>
			<path d="m295.656 172.534h-.083c-4.143 0-7.459 3.357-7.459 7.5s3.399 7.5 7.542 7.5 7.5-3.357 7.5-7.5-3.358-7.5-7.5-7.5z"/>
			<path d="m143.242 307.939h-94.86c-4.143 0-7.5 3.357-7.5 7.5s3.357 7.5 7.5 7.5h94.859c4.143 0 7.5-3.357 7.5-7.5s-3.357-7.5-7.499-7.5z"/>
			<path d="m143.242 334.273h-54.04c-4.143 0-7.5 3.357-7.5 7.5s3.357 7.5 7.5 7.5h54.04c4.143 0 7.5-3.357 7.5-7.5s-3.358-7.5-7.5-7.5z"/>
			<path d="m143.242 360.606h-54.04c-4.143 0-7.5 3.357-7.5 7.5s3.357 7.5 7.5 7.5h54.04c4.143 0 7.5-3.357 7.5-7.5s-3.358-7.5-7.5-7.5z"/>
			<path d="m132.93 398.781h-23.973c-9.649 0-17.5 7.851-17.5 17.5v23.974c0 9.649 7.851 17.5 17.5 17.5h23.973c9.649 0 17.5-7.851 17.5-17.5v-23.974c0-9.649-7.85-17.5-17.5-17.5zm2.5 41.474c0 1.379-1.121 2.5-2.5 2.5h-23.973c-1.379 0-2.5-1.121-2.5-2.5v-23.974c0-1.379 1.121-2.5 2.5-2.5h23.973c1.379 0 2.5 1.121 2.5 2.5z"/>
			<path d="m46.392 212.262c12.313 17.027 30.031 29.31 52.667 36.507 1.146.364 2.324.547 3.503.547s2.357-.183 3.504-.547c22.635-7.197 40.354-19.48 52.665-36.507 6.018-8.32 9.415-16.074 11.204-21.111 1.104-3.105 1.665-6.367 1.665-9.694v-17.323c0-4.143-3.357-7.5-7.5-7.5s-7.5 3.357-7.5 7.5v17.323c0 1.609-.269 3.18-.799 4.67-1.462 4.116-4.249 10.466-9.225 17.347-10.204 14.111-25.008 24.425-44.015 30.665-19.006-6.241-33.812-16.555-44.015-30.664-1.791-2.478-3.438-5.085-4.894-7.747-3.356-6.14-5.131-13.166-5.131-20.318v-59.632l54.039-13.16 54.038 13.16v14.532c0 4.143 3.357 7.5 7.5 7.5s7.5-3.357 7.5-7.5v-17.21c0-5.364-3.64-9.996-8.85-11.264l-57.453-13.992c-1.787-.433-3.68-.433-5.479.002l-57.445 13.99c-5.211 1.268-8.851 5.899-8.851 11.264v62.309c0 9.659 2.41 19.173 6.97 27.515 1.76 3.211 3.744 6.352 5.902 9.338z"/>
			<path d="m102.562 189.869c4.143 0 7.5-3.357 7.5-7.5v-10.571h10.571c4.143 0 7.5-3.357 7.5-7.5s-3.357-7.5-7.5-7.5h-10.571v-10.571c0-4.143-3.357-7.5-7.5-7.5s-7.5 3.357-7.5 7.5v10.571h-10.571c-4.143 0-7.5 3.357-7.5 7.5s3.357 7.5 7.5 7.5h10.571v10.571c0 4.143 3.357 7.5 7.5 7.5z"/>
			<path d="m369.994 223.278c.149-4.14-3.085-7.616-7.225-7.766-4.151-.138-7.616 3.085-7.766 7.225-.354 9.796-8.313 17.47-18.119 17.47-9.808 0-17.767-7.673-18.119-17.469-.148-4.14-3.628-7.379-7.765-7.226-4.14.149-7.375 3.626-7.226 7.765.645 17.904 15.188 31.93 33.109 31.93s32.465-14.024 33.111-31.929z"/>
		</g>
	</g>
</svg>